<mxfile host="app.diagrams.net" modified="2022-05-12T13:43:50.707Z" agent="5.0 (Windows NT 10.0; Win64; x64) AppleWebKit/537.36 (KHTML, like Gecko) Chrome/100.0.4896.127 Safari/537.36" etag="IAsXtDGbg0Aiwoi9ov90" version="17.4.6" type="github">
  <diagram id="C5RBs43oDa-KdzZeNtuy" name="Page-1">
    <mxGraphModel dx="860" dy="682" grid="1" gridSize="10" guides="1" tooltips="1" connect="1" arrows="1" fold="1" page="1" pageScale="1" pageWidth="827" pageHeight="1169" math="0" shadow="0">
      <root>
        <mxCell id="WIyWlLk6GJQsqaUBKTNV-0" />
        <mxCell id="WIyWlLk6GJQsqaUBKTNV-1" parent="WIyWlLk6GJQsqaUBKTNV-0" />
        <mxCell id="WIyWlLk6GJQsqaUBKTNV-2" value="" style="rounded=0;html=1;jettySize=auto;orthogonalLoop=1;fontSize=11;endArrow=block;endFill=0;endSize=8;strokeWidth=1;shadow=0;labelBackgroundColor=none;edgeStyle=orthogonalEdgeStyle;fontFamily=Lucida Console;" parent="WIyWlLk6GJQsqaUBKTNV-1" source="WIyWlLk6GJQsqaUBKTNV-3" edge="1">
          <mxGeometry relative="1" as="geometry">
            <mxPoint x="230" y="280" as="targetPoint" />
          </mxGeometry>
        </mxCell>
        <mxCell id="WIyWlLk6GJQsqaUBKTNV-3" value="&lt;div style=&quot;background-color: rgb(255, 255, 255);&quot;&gt;Tilføj motionssvømmer&lt;/div&gt;" style="rounded=1;whiteSpace=wrap;html=1;fontSize=12;glass=0;strokeWidth=1;shadow=0;fontFamily=Lucida Console;" parent="WIyWlLk6GJQsqaUBKTNV-1" vertex="1">
          <mxGeometry x="130" y="220" width="200" height="30" as="geometry" />
        </mxCell>
        <mxCell id="IRePbEhJJhgFrzdcHoTZ-1" value="" style="edgeStyle=orthogonalEdgeStyle;rounded=0;orthogonalLoop=1;jettySize=auto;html=1;fontFamily=Lucida Console;" edge="1" parent="WIyWlLk6GJQsqaUBKTNV-1" source="IRePbEhJJhgFrzdcHoTZ-0" target="WIyWlLk6GJQsqaUBKTNV-3">
          <mxGeometry relative="1" as="geometry" />
        </mxCell>
        <mxCell id="IRePbEhJJhgFrzdcHoTZ-0" value="" style="ellipse;fillColor=#000000;strokeColor=none;fontFamily=Lucida Console;" vertex="1" parent="WIyWlLk6GJQsqaUBKTNV-1">
          <mxGeometry x="50" y="220" width="30" height="30" as="geometry" />
        </mxCell>
        <mxCell id="IRePbEhJJhgFrzdcHoTZ-2" value="&lt;font style=&quot;font-size: 15px&quot; face=&quot;Helvetica&quot;&gt;Aktivitetsdiagram for addNonCompetitorMember&lt;/font&gt;" style="text;html=1;strokeColor=none;fillColor=none;align=center;verticalAlign=middle;whiteSpace=wrap;rounded=0;fontFamily=Lucida Console;" vertex="1" parent="WIyWlLk6GJQsqaUBKTNV-1">
          <mxGeometry x="50" y="110" width="306" height="30" as="geometry" />
        </mxCell>
        <mxCell id="IRePbEhJJhgFrzdcHoTZ-5" value="" style="edgeStyle=orthogonalEdgeStyle;rounded=0;orthogonalLoop=1;jettySize=auto;html=1;fontSize=15;fontFamily=Lucida Console;" edge="1" parent="WIyWlLk6GJQsqaUBKTNV-1" source="IRePbEhJJhgFrzdcHoTZ-3" target="IRePbEhJJhgFrzdcHoTZ-4">
          <mxGeometry relative="1" as="geometry" />
        </mxCell>
        <mxCell id="IRePbEhJJhgFrzdcHoTZ-3" value="&lt;font style=&quot;font-size: 12px&quot;&gt;Print: Opret ny motionssvømmer. Tast ind stam.opl Navn:&lt;/font&gt;" style="rounded=1;whiteSpace=wrap;html=1;fontSize=15;fontFamily=Lucida Console;" vertex="1" parent="WIyWlLk6GJQsqaUBKTNV-1">
          <mxGeometry x="160" y="280" width="140" height="80" as="geometry" />
        </mxCell>
        <mxCell id="IRePbEhJJhgFrzdcHoTZ-7" value="" style="edgeStyle=orthogonalEdgeStyle;rounded=0;orthogonalLoop=1;jettySize=auto;html=1;fontSize=15;fontFamily=Lucida Console;" edge="1" parent="WIyWlLk6GJQsqaUBKTNV-1" source="IRePbEhJJhgFrzdcHoTZ-4" target="IRePbEhJJhgFrzdcHoTZ-6">
          <mxGeometry relative="1" as="geometry" />
        </mxCell>
        <mxCell id="IRePbEhJJhgFrzdcHoTZ-4" value="&lt;div style=&quot;font-size: 12px; background-color: rgb(255, 255, 255);&quot;&gt;name&lt;/div&gt;" style="html=1;shape=mxgraph.infographic.ribbonSimple;notch1=20;notch2=0;align=center;verticalAlign=middle;fontSize=14;fontStyle=0;fillColor=#FFFFFF;flipH=0;spacingRight=0;spacingLeft=14;shadow=0;fontFamily=Lucida Console;" vertex="1" parent="WIyWlLk6GJQsqaUBKTNV-1">
          <mxGeometry x="182.5" y="390" width="95" height="40" as="geometry" />
        </mxCell>
        <mxCell id="IRePbEhJJhgFrzdcHoTZ-11" value="" style="edgeStyle=orthogonalEdgeStyle;rounded=0;orthogonalLoop=1;jettySize=auto;html=1;fontSize=15;fontFamily=Lucida Console;" edge="1" parent="WIyWlLk6GJQsqaUBKTNV-1" source="IRePbEhJJhgFrzdcHoTZ-6" target="IRePbEhJJhgFrzdcHoTZ-10">
          <mxGeometry relative="1" as="geometry" />
        </mxCell>
        <mxCell id="IRePbEhJJhgFrzdcHoTZ-6" value="&lt;font style=&quot;font-size: 12px&quot;&gt;Print: Alder:&amp;nbsp;&lt;/font&gt;" style="rounded=1;whiteSpace=wrap;html=1;fontSize=14;fillColor=#FFFFFF;fontStyle=0;spacingRight=0;spacingLeft=14;shadow=0;fontFamily=Lucida Console;" vertex="1" parent="WIyWlLk6GJQsqaUBKTNV-1">
          <mxGeometry x="170" y="460" width="120" height="30" as="geometry" />
        </mxCell>
        <mxCell id="IRePbEhJJhgFrzdcHoTZ-8" value="" style="rounded=0;whiteSpace=wrap;html=1;fontSize=15;fontFamily=Lucida Console;" vertex="1" parent="WIyWlLk6GJQsqaUBKTNV-1">
          <mxGeometry x="250" y="430" width="10" height="10" as="geometry" />
        </mxCell>
        <mxCell id="IRePbEhJJhgFrzdcHoTZ-9" value="&lt;font style=&quot;font-size: 12px&quot;&gt;String&amp;nbsp;&lt;/font&gt;" style="text;html=1;strokeColor=none;fillColor=none;align=center;verticalAlign=middle;whiteSpace=wrap;rounded=0;fontSize=15;fontFamily=Lucida Console;" vertex="1" parent="WIyWlLk6GJQsqaUBKTNV-1">
          <mxGeometry x="270" y="430" width="70" height="30" as="geometry" />
        </mxCell>
        <mxCell id="IRePbEhJJhgFrzdcHoTZ-13" value="" style="edgeStyle=orthogonalEdgeStyle;rounded=0;orthogonalLoop=1;jettySize=auto;html=1;fontSize=15;fontFamily=Lucida Console;" edge="1" parent="WIyWlLk6GJQsqaUBKTNV-1" source="IRePbEhJJhgFrzdcHoTZ-10" target="IRePbEhJJhgFrzdcHoTZ-12">
          <mxGeometry relative="1" as="geometry" />
        </mxCell>
        <mxCell id="IRePbEhJJhgFrzdcHoTZ-10" value="&lt;div style=&quot;font-size: 12px; background-color: rgb(255, 255, 255);&quot;&gt;age&lt;/div&gt;" style="html=1;shape=mxgraph.infographic.ribbonSimple;notch1=20;notch2=0;align=center;verticalAlign=middle;fontSize=14;fontStyle=0;fillColor=#FFFFFF;flipH=0;spacingRight=0;spacingLeft=14;shadow=0;fontFamily=Lucida Console;" vertex="1" parent="WIyWlLk6GJQsqaUBKTNV-1">
          <mxGeometry x="182.5" y="520" width="95" height="40" as="geometry" />
        </mxCell>
        <mxCell id="IRePbEhJJhgFrzdcHoTZ-20" value="" style="edgeStyle=orthogonalEdgeStyle;rounded=0;orthogonalLoop=1;jettySize=auto;html=1;fontSize=15;fontFamily=Lucida Console;" edge="1" parent="WIyWlLk6GJQsqaUBKTNV-1" source="IRePbEhJJhgFrzdcHoTZ-12" target="IRePbEhJJhgFrzdcHoTZ-14">
          <mxGeometry relative="1" as="geometry" />
        </mxCell>
        <mxCell id="IRePbEhJJhgFrzdcHoTZ-12" value="&lt;font style=&quot;font-size: 12px&quot;&gt;Print: Email:&amp;nbsp;&lt;/font&gt;" style="rounded=1;whiteSpace=wrap;html=1;fontSize=14;fillColor=#FFFFFF;fontStyle=0;spacingRight=0;spacingLeft=14;shadow=0;fontFamily=Lucida Console;" vertex="1" parent="WIyWlLk6GJQsqaUBKTNV-1">
          <mxGeometry x="170" y="590" width="120" height="30" as="geometry" />
        </mxCell>
        <mxCell id="IRePbEhJJhgFrzdcHoTZ-25" value="" style="edgeStyle=orthogonalEdgeStyle;rounded=0;orthogonalLoop=1;jettySize=auto;html=1;fontSize=15;fontFamily=Lucida Console;" edge="1" parent="WIyWlLk6GJQsqaUBKTNV-1" source="IRePbEhJJhgFrzdcHoTZ-14" target="IRePbEhJJhgFrzdcHoTZ-24">
          <mxGeometry relative="1" as="geometry" />
        </mxCell>
        <mxCell id="IRePbEhJJhgFrzdcHoTZ-14" value="&lt;div style=&quot;font-size: 12px; background-color: rgb(255, 255, 255);&quot;&gt;email&lt;/div&gt;" style="html=1;shape=mxgraph.infographic.ribbonSimple;notch1=20;notch2=0;align=center;verticalAlign=middle;fontSize=14;fontStyle=0;fillColor=#FFFFFF;flipH=0;spacingRight=0;spacingLeft=14;shadow=0;fontFamily=Lucida Console;" vertex="1" parent="WIyWlLk6GJQsqaUBKTNV-1">
          <mxGeometry x="182.5" y="650" width="95" height="40" as="geometry" />
        </mxCell>
        <mxCell id="IRePbEhJJhgFrzdcHoTZ-15" value="" style="rounded=0;whiteSpace=wrap;html=1;fontSize=15;fontFamily=Lucida Console;" vertex="1" parent="WIyWlLk6GJQsqaUBKTNV-1">
          <mxGeometry x="250" y="560" width="10" height="10" as="geometry" />
        </mxCell>
        <mxCell id="IRePbEhJJhgFrzdcHoTZ-16" value="" style="rounded=0;whiteSpace=wrap;html=1;fontSize=15;fontFamily=Lucida Console;" vertex="1" parent="WIyWlLk6GJQsqaUBKTNV-1">
          <mxGeometry x="250" y="690" width="10" height="10" as="geometry" />
        </mxCell>
        <mxCell id="IRePbEhJJhgFrzdcHoTZ-22" value="&lt;font style=&quot;font-size: 12px&quot;&gt;Integer&lt;/font&gt;" style="text;html=1;strokeColor=none;fillColor=none;align=center;verticalAlign=middle;whiteSpace=wrap;rounded=0;fontSize=15;fontFamily=Lucida Console;" vertex="1" parent="WIyWlLk6GJQsqaUBKTNV-1">
          <mxGeometry x="270" y="550" width="70" height="30" as="geometry" />
        </mxCell>
        <mxCell id="IRePbEhJJhgFrzdcHoTZ-23" value="&lt;font style=&quot;font-size: 12px&quot;&gt;String&amp;nbsp;&lt;/font&gt;" style="text;html=1;strokeColor=none;fillColor=none;align=center;verticalAlign=middle;whiteSpace=wrap;rounded=0;fontSize=15;fontFamily=Lucida Console;" vertex="1" parent="WIyWlLk6GJQsqaUBKTNV-1">
          <mxGeometry x="260" y="690" width="70" height="30" as="geometry" />
        </mxCell>
        <mxCell id="IRePbEhJJhgFrzdcHoTZ-27" value="" style="edgeStyle=orthogonalEdgeStyle;rounded=0;orthogonalLoop=1;jettySize=auto;html=1;fontSize=15;fontFamily=Lucida Console;" edge="1" parent="WIyWlLk6GJQsqaUBKTNV-1" source="IRePbEhJJhgFrzdcHoTZ-24" target="IRePbEhJJhgFrzdcHoTZ-26">
          <mxGeometry relative="1" as="geometry" />
        </mxCell>
        <mxCell id="IRePbEhJJhgFrzdcHoTZ-24" value="&lt;font style=&quot;font-size: 12px&quot;&gt;Print: Er kontingenten betalt (j/n):&amp;nbsp;&lt;/font&gt;" style="rounded=1;whiteSpace=wrap;html=1;fontSize=14;fillColor=#FFFFFF;fontStyle=0;spacingRight=0;spacingLeft=14;shadow=0;fontFamily=Lucida Console;" vertex="1" parent="WIyWlLk6GJQsqaUBKTNV-1">
          <mxGeometry x="170" y="720" width="120" height="60" as="geometry" />
        </mxCell>
        <mxCell id="IRePbEhJJhgFrzdcHoTZ-32" value="" style="edgeStyle=orthogonalEdgeStyle;rounded=0;orthogonalLoop=1;jettySize=auto;html=1;fontFamily=Helvetica;fontSize=12;" edge="1" parent="WIyWlLk6GJQsqaUBKTNV-1" source="IRePbEhJJhgFrzdcHoTZ-26" target="IRePbEhJJhgFrzdcHoTZ-31">
          <mxGeometry relative="1" as="geometry" />
        </mxCell>
        <mxCell id="IRePbEhJJhgFrzdcHoTZ-26" value="&lt;div style=&quot;font-size: 12px; background-color: rgb(255, 255, 255);&quot;&gt;email&lt;/div&gt;" style="html=1;shape=mxgraph.infographic.ribbonSimple;notch1=20;notch2=0;align=center;verticalAlign=middle;fontSize=14;fontStyle=0;fillColor=#FFFFFF;flipH=0;spacingRight=0;spacingLeft=14;shadow=0;fontFamily=Lucida Console;" vertex="1" parent="WIyWlLk6GJQsqaUBKTNV-1">
          <mxGeometry x="182.5" y="810" width="95" height="40" as="geometry" />
        </mxCell>
        <mxCell id="IRePbEhJJhgFrzdcHoTZ-29" value="" style="rounded=0;whiteSpace=wrap;html=1;fontSize=15;fontFamily=Lucida Console;" vertex="1" parent="WIyWlLk6GJQsqaUBKTNV-1">
          <mxGeometry x="250" y="850" width="10" height="10" as="geometry" />
        </mxCell>
        <mxCell id="IRePbEhJJhgFrzdcHoTZ-30" value="&lt;font style=&quot;font-size: 12px&quot;&gt;String&amp;nbsp;&lt;/font&gt;" style="text;html=1;strokeColor=none;fillColor=none;align=center;verticalAlign=middle;whiteSpace=wrap;rounded=0;fontSize=15;fontFamily=Lucida Console;" vertex="1" parent="WIyWlLk6GJQsqaUBKTNV-1">
          <mxGeometry x="260" y="850" width="70" height="30" as="geometry" />
        </mxCell>
        <mxCell id="IRePbEhJJhgFrzdcHoTZ-78" value="" style="edgeStyle=orthogonalEdgeStyle;rounded=0;orthogonalLoop=1;jettySize=auto;html=1;fontFamily=Helvetica;fontSize=12;" edge="1" parent="WIyWlLk6GJQsqaUBKTNV-1" source="IRePbEhJJhgFrzdcHoTZ-31" target="IRePbEhJJhgFrzdcHoTZ-77">
          <mxGeometry relative="1" as="geometry" />
        </mxCell>
        <mxCell id="IRePbEhJJhgFrzdcHoTZ-31" value="&lt;font style=&quot;font-size: 12px&quot;&gt;Print: Stamoplysninger medlem lagt til&lt;/font&gt;" style="rounded=1;whiteSpace=wrap;html=1;fontSize=14;fontFamily=Lucida Console;fillColor=#FFFFFF;fontStyle=0;spacingRight=0;spacingLeft=14;shadow=0;" vertex="1" parent="WIyWlLk6GJQsqaUBKTNV-1">
          <mxGeometry x="145" y="880" width="170" height="70" as="geometry" />
        </mxCell>
        <mxCell id="IRePbEhJJhgFrzdcHoTZ-34" value="&lt;span style=&quot;color: rgb(0 , 0 , 0) ; font-family: &amp;#34;helvetica&amp;#34; ; font-size: 15px ; font-style: normal ; font-weight: 400 ; letter-spacing: normal ; text-align: center ; text-indent: 0px ; text-transform: none ; word-spacing: 0px ; background-color: rgb(248 , 249 , 250) ; display: inline ; float: none&quot;&gt;Aktivitetsdiagram for addCompetitorMember&lt;/span&gt;" style="text;whiteSpace=wrap;html=1;fontSize=12;fontFamily=Helvetica;" vertex="1" parent="WIyWlLk6GJQsqaUBKTNV-1">
          <mxGeometry x="440" y="110" width="350" height="30" as="geometry" />
        </mxCell>
        <mxCell id="IRePbEhJJhgFrzdcHoTZ-35" value="" style="rounded=0;html=1;jettySize=auto;orthogonalLoop=1;fontSize=11;endArrow=block;endFill=0;endSize=8;strokeWidth=1;shadow=0;labelBackgroundColor=none;edgeStyle=orthogonalEdgeStyle;fontFamily=Lucida Console;" edge="1" parent="WIyWlLk6GJQsqaUBKTNV-1" source="IRePbEhJJhgFrzdcHoTZ-36">
          <mxGeometry relative="1" as="geometry">
            <mxPoint x="610" y="230" as="targetPoint" />
          </mxGeometry>
        </mxCell>
        <mxCell id="IRePbEhJJhgFrzdcHoTZ-36" value="&lt;div style=&quot;background-color: rgb(255 , 255 , 255)&quot;&gt;Tilføj konkurrencesvømmer&lt;/div&gt;" style="rounded=1;whiteSpace=wrap;html=1;fontSize=12;glass=0;strokeWidth=1;shadow=0;fontFamily=Lucida Console;" vertex="1" parent="WIyWlLk6GJQsqaUBKTNV-1">
          <mxGeometry x="510" y="170" width="200" height="30" as="geometry" />
        </mxCell>
        <mxCell id="IRePbEhJJhgFrzdcHoTZ-37" value="" style="edgeStyle=orthogonalEdgeStyle;rounded=0;orthogonalLoop=1;jettySize=auto;html=1;fontFamily=Lucida Console;" edge="1" parent="WIyWlLk6GJQsqaUBKTNV-1" source="IRePbEhJJhgFrzdcHoTZ-38" target="IRePbEhJJhgFrzdcHoTZ-36">
          <mxGeometry relative="1" as="geometry" />
        </mxCell>
        <mxCell id="IRePbEhJJhgFrzdcHoTZ-38" value="" style="ellipse;fillColor=#000000;strokeColor=none;fontFamily=Lucida Console;" vertex="1" parent="WIyWlLk6GJQsqaUBKTNV-1">
          <mxGeometry x="430" y="170" width="30" height="30" as="geometry" />
        </mxCell>
        <mxCell id="IRePbEhJJhgFrzdcHoTZ-39" value="" style="edgeStyle=orthogonalEdgeStyle;rounded=0;orthogonalLoop=1;jettySize=auto;html=1;fontSize=15;fontFamily=Lucida Console;" edge="1" parent="WIyWlLk6GJQsqaUBKTNV-1" source="IRePbEhJJhgFrzdcHoTZ-40" target="IRePbEhJJhgFrzdcHoTZ-42">
          <mxGeometry relative="1" as="geometry" />
        </mxCell>
        <mxCell id="IRePbEhJJhgFrzdcHoTZ-40" value="&lt;font style=&quot;font-size: 12px&quot;&gt;Print: Opret ny konkurrencesvømmer. Tast ind stam.opl Navn:&lt;/font&gt;" style="rounded=1;whiteSpace=wrap;html=1;fontSize=15;fontFamily=Lucida Console;" vertex="1" parent="WIyWlLk6GJQsqaUBKTNV-1">
          <mxGeometry x="530" y="230" width="160" height="80" as="geometry" />
        </mxCell>
        <mxCell id="IRePbEhJJhgFrzdcHoTZ-41" value="" style="edgeStyle=orthogonalEdgeStyle;rounded=0;orthogonalLoop=1;jettySize=auto;html=1;fontSize=15;fontFamily=Lucida Console;" edge="1" parent="WIyWlLk6GJQsqaUBKTNV-1" source="IRePbEhJJhgFrzdcHoTZ-42" target="IRePbEhJJhgFrzdcHoTZ-44">
          <mxGeometry relative="1" as="geometry" />
        </mxCell>
        <mxCell id="IRePbEhJJhgFrzdcHoTZ-42" value="&lt;div style=&quot;font-size: 12px; background-color: rgb(255, 255, 255);&quot;&gt;name&lt;/div&gt;" style="html=1;shape=mxgraph.infographic.ribbonSimple;notch1=20;notch2=0;align=center;verticalAlign=middle;fontSize=14;fontStyle=0;fillColor=#FFFFFF;flipH=0;spacingRight=0;spacingLeft=14;shadow=0;fontFamily=Lucida Console;" vertex="1" parent="WIyWlLk6GJQsqaUBKTNV-1">
          <mxGeometry x="562.5" y="340" width="95" height="40" as="geometry" />
        </mxCell>
        <mxCell id="IRePbEhJJhgFrzdcHoTZ-44" value="&lt;font style=&quot;font-size: 12px&quot;&gt;Print: Alder:&amp;nbsp;&lt;/font&gt;" style="rounded=1;whiteSpace=wrap;html=1;fontSize=14;fillColor=#FFFFFF;fontStyle=0;spacingRight=0;spacingLeft=14;shadow=0;fontFamily=Lucida Console;" vertex="1" parent="WIyWlLk6GJQsqaUBKTNV-1">
          <mxGeometry x="550" y="410" width="120" height="30" as="geometry" />
        </mxCell>
        <mxCell id="IRePbEhJJhgFrzdcHoTZ-45" value="" style="rounded=0;whiteSpace=wrap;html=1;fontSize=15;fontFamily=Lucida Console;" vertex="1" parent="WIyWlLk6GJQsqaUBKTNV-1">
          <mxGeometry x="630" y="380" width="10" height="10" as="geometry" />
        </mxCell>
        <mxCell id="IRePbEhJJhgFrzdcHoTZ-46" value="&lt;font style=&quot;font-size: 12px&quot;&gt;String&amp;nbsp;&lt;/font&gt;" style="text;html=1;strokeColor=none;fillColor=none;align=center;verticalAlign=middle;whiteSpace=wrap;rounded=0;fontSize=15;fontFamily=Lucida Console;" vertex="1" parent="WIyWlLk6GJQsqaUBKTNV-1">
          <mxGeometry x="650" y="380" width="70" height="30" as="geometry" />
        </mxCell>
        <mxCell id="IRePbEhJJhgFrzdcHoTZ-66" value="" style="edgeStyle=orthogonalEdgeStyle;rounded=0;orthogonalLoop=1;jettySize=auto;html=1;fontFamily=Helvetica;fontSize=12;" edge="1" parent="WIyWlLk6GJQsqaUBKTNV-1" source="IRePbEhJJhgFrzdcHoTZ-48" target="IRePbEhJJhgFrzdcHoTZ-65">
          <mxGeometry relative="1" as="geometry" />
        </mxCell>
        <mxCell id="IRePbEhJJhgFrzdcHoTZ-48" value="&lt;div style=&quot;font-size: 12px; background-color: rgb(255, 255, 255);&quot;&gt;age&lt;/div&gt;" style="html=1;shape=mxgraph.infographic.ribbonSimple;notch1=20;notch2=0;align=center;verticalAlign=middle;fontSize=14;fontStyle=0;fillColor=#FFFFFF;flipH=0;spacingRight=0;spacingLeft=14;shadow=0;fontFamily=Lucida Console;" vertex="1" parent="WIyWlLk6GJQsqaUBKTNV-1">
          <mxGeometry x="562.5" y="470" width="95" height="40" as="geometry" />
        </mxCell>
        <mxCell id="IRePbEhJJhgFrzdcHoTZ-49" value="" style="edgeStyle=orthogonalEdgeStyle;rounded=0;orthogonalLoop=1;jettySize=auto;html=1;fontSize=15;fontFamily=Lucida Console;" edge="1" parent="WIyWlLk6GJQsqaUBKTNV-1" source="IRePbEhJJhgFrzdcHoTZ-50" target="IRePbEhJJhgFrzdcHoTZ-52">
          <mxGeometry relative="1" as="geometry" />
        </mxCell>
        <mxCell id="IRePbEhJJhgFrzdcHoTZ-76" value="" style="edgeStyle=orthogonalEdgeStyle;rounded=0;orthogonalLoop=1;jettySize=auto;html=1;fontFamily=Helvetica;fontSize=12;" edge="1" parent="WIyWlLk6GJQsqaUBKTNV-1" source="IRePbEhJJhgFrzdcHoTZ-50" target="IRePbEhJJhgFrzdcHoTZ-70">
          <mxGeometry relative="1" as="geometry" />
        </mxCell>
        <mxCell id="IRePbEhJJhgFrzdcHoTZ-50" value="&lt;font style=&quot;font-size: 12px&quot;&gt;Print: Email:&amp;nbsp;&lt;/font&gt;" style="rounded=1;whiteSpace=wrap;html=1;fontSize=14;fillColor=#FFFFFF;fontStyle=0;spacingRight=0;spacingLeft=14;shadow=0;fontFamily=Lucida Console;" vertex="1" parent="WIyWlLk6GJQsqaUBKTNV-1">
          <mxGeometry x="550" y="680" width="120" height="30" as="geometry" />
        </mxCell>
        <mxCell id="IRePbEhJJhgFrzdcHoTZ-51" value="" style="edgeStyle=orthogonalEdgeStyle;rounded=0;orthogonalLoop=1;jettySize=auto;html=1;fontSize=15;fontFamily=Lucida Console;" edge="1" parent="WIyWlLk6GJQsqaUBKTNV-1" source="IRePbEhJJhgFrzdcHoTZ-52" target="IRePbEhJJhgFrzdcHoTZ-58">
          <mxGeometry relative="1" as="geometry" />
        </mxCell>
        <mxCell id="IRePbEhJJhgFrzdcHoTZ-52" value="&lt;div style=&quot;font-size: 12px; background-color: rgb(255, 255, 255);&quot;&gt;email&lt;/div&gt;" style="html=1;shape=mxgraph.infographic.ribbonSimple;notch1=20;notch2=0;align=center;verticalAlign=middle;fontSize=14;fontStyle=0;fillColor=#FFFFFF;flipH=0;spacingRight=0;spacingLeft=14;shadow=0;fontFamily=Lucida Console;" vertex="1" parent="WIyWlLk6GJQsqaUBKTNV-1">
          <mxGeometry x="562.5" y="740" width="95" height="40" as="geometry" />
        </mxCell>
        <mxCell id="IRePbEhJJhgFrzdcHoTZ-53" value="" style="rounded=0;whiteSpace=wrap;html=1;fontSize=15;fontFamily=Lucida Console;" vertex="1" parent="WIyWlLk6GJQsqaUBKTNV-1">
          <mxGeometry x="630" y="510" width="10" height="10" as="geometry" />
        </mxCell>
        <mxCell id="IRePbEhJJhgFrzdcHoTZ-54" value="" style="rounded=0;whiteSpace=wrap;html=1;fontSize=15;fontFamily=Lucida Console;" vertex="1" parent="WIyWlLk6GJQsqaUBKTNV-1">
          <mxGeometry x="630" y="780" width="10" height="10" as="geometry" />
        </mxCell>
        <mxCell id="IRePbEhJJhgFrzdcHoTZ-55" value="&lt;font style=&quot;font-size: 12px&quot;&gt;Integer&lt;/font&gt;" style="text;html=1;strokeColor=none;fillColor=none;align=center;verticalAlign=middle;whiteSpace=wrap;rounded=0;fontSize=15;fontFamily=Lucida Console;" vertex="1" parent="WIyWlLk6GJQsqaUBKTNV-1">
          <mxGeometry x="640" y="505" width="70" height="30" as="geometry" />
        </mxCell>
        <mxCell id="IRePbEhJJhgFrzdcHoTZ-56" value="&lt;font style=&quot;font-size: 12px&quot;&gt;String&amp;nbsp;&lt;/font&gt;" style="text;html=1;strokeColor=none;fillColor=none;align=center;verticalAlign=middle;whiteSpace=wrap;rounded=0;fontSize=15;fontFamily=Lucida Console;" vertex="1" parent="WIyWlLk6GJQsqaUBKTNV-1">
          <mxGeometry x="640" y="780" width="70" height="30" as="geometry" />
        </mxCell>
        <mxCell id="IRePbEhJJhgFrzdcHoTZ-57" value="" style="edgeStyle=orthogonalEdgeStyle;rounded=0;orthogonalLoop=1;jettySize=auto;html=1;fontSize=15;fontFamily=Lucida Console;" edge="1" parent="WIyWlLk6GJQsqaUBKTNV-1" source="IRePbEhJJhgFrzdcHoTZ-58" target="IRePbEhJJhgFrzdcHoTZ-60">
          <mxGeometry relative="1" as="geometry" />
        </mxCell>
        <mxCell id="IRePbEhJJhgFrzdcHoTZ-58" value="&lt;font style=&quot;font-size: 12px&quot;&gt;Print: Er kontingenten betalt (j/n):&amp;nbsp;&lt;/font&gt;" style="rounded=1;whiteSpace=wrap;html=1;fontSize=14;fillColor=#FFFFFF;fontStyle=0;spacingRight=0;spacingLeft=14;shadow=0;fontFamily=Lucida Console;" vertex="1" parent="WIyWlLk6GJQsqaUBKTNV-1">
          <mxGeometry x="550" y="810" width="120" height="60" as="geometry" />
        </mxCell>
        <mxCell id="IRePbEhJJhgFrzdcHoTZ-59" value="" style="edgeStyle=orthogonalEdgeStyle;rounded=0;orthogonalLoop=1;jettySize=auto;html=1;fontFamily=Helvetica;fontSize=12;" edge="1" parent="WIyWlLk6GJQsqaUBKTNV-1" source="IRePbEhJJhgFrzdcHoTZ-60" target="IRePbEhJJhgFrzdcHoTZ-63">
          <mxGeometry relative="1" as="geometry" />
        </mxCell>
        <mxCell id="IRePbEhJJhgFrzdcHoTZ-60" value="&lt;div style=&quot;font-size: 12px; background-color: rgb(255, 255, 255);&quot;&gt;email&lt;/div&gt;" style="html=1;shape=mxgraph.infographic.ribbonSimple;notch1=20;notch2=0;align=center;verticalAlign=middle;fontSize=14;fontStyle=0;fillColor=#FFFFFF;flipH=0;spacingRight=0;spacingLeft=14;shadow=0;fontFamily=Lucida Console;" vertex="1" parent="WIyWlLk6GJQsqaUBKTNV-1">
          <mxGeometry x="562.5" y="900" width="95" height="40" as="geometry" />
        </mxCell>
        <mxCell id="IRePbEhJJhgFrzdcHoTZ-61" value="" style="rounded=0;whiteSpace=wrap;html=1;fontSize=15;fontFamily=Lucida Console;" vertex="1" parent="WIyWlLk6GJQsqaUBKTNV-1">
          <mxGeometry x="630" y="940" width="10" height="10" as="geometry" />
        </mxCell>
        <mxCell id="IRePbEhJJhgFrzdcHoTZ-62" value="&lt;font style=&quot;font-size: 12px&quot;&gt;String&amp;nbsp;&lt;/font&gt;" style="text;html=1;strokeColor=none;fillColor=none;align=center;verticalAlign=middle;whiteSpace=wrap;rounded=0;fontSize=15;fontFamily=Lucida Console;" vertex="1" parent="WIyWlLk6GJQsqaUBKTNV-1">
          <mxGeometry x="640" y="940" width="70" height="30" as="geometry" />
        </mxCell>
        <mxCell id="IRePbEhJJhgFrzdcHoTZ-63" value="&lt;font style=&quot;font-size: 12px&quot;&gt;Print: Stamoplysninger medlem lagt til&lt;/font&gt;" style="rounded=1;whiteSpace=wrap;html=1;fontSize=14;fontFamily=Lucida Console;fillColor=#FFFFFF;fontStyle=0;spacingRight=0;spacingLeft=14;shadow=0;" vertex="1" parent="WIyWlLk6GJQsqaUBKTNV-1">
          <mxGeometry x="525" y="1000" width="170" height="70" as="geometry" />
        </mxCell>
        <mxCell id="IRePbEhJJhgFrzdcHoTZ-71" value="" style="edgeStyle=orthogonalEdgeStyle;rounded=0;orthogonalLoop=1;jettySize=auto;html=1;fontFamily=Helvetica;fontSize=12;" edge="1" parent="WIyWlLk6GJQsqaUBKTNV-1" source="IRePbEhJJhgFrzdcHoTZ-65" target="IRePbEhJJhgFrzdcHoTZ-67">
          <mxGeometry relative="1" as="geometry" />
        </mxCell>
        <mxCell id="IRePbEhJJhgFrzdcHoTZ-65" value="&lt;font style=&quot;font-size: 12px&quot;&gt;Print: Køn:&amp;nbsp;&lt;/font&gt;" style="rounded=1;whiteSpace=wrap;html=1;fontSize=14;fillColor=#FFFFFF;fontStyle=0;spacingRight=0;spacingLeft=14;shadow=0;fontFamily=Lucida Console;" vertex="1" parent="WIyWlLk6GJQsqaUBKTNV-1">
          <mxGeometry x="550" y="540" width="120" height="30" as="geometry" />
        </mxCell>
        <mxCell id="IRePbEhJJhgFrzdcHoTZ-75" value="" style="edgeStyle=orthogonalEdgeStyle;rounded=0;orthogonalLoop=1;jettySize=auto;html=1;fontFamily=Helvetica;fontSize=12;" edge="1" parent="WIyWlLk6GJQsqaUBKTNV-1" source="IRePbEhJJhgFrzdcHoTZ-67">
          <mxGeometry relative="1" as="geometry">
            <mxPoint x="610" y="680" as="targetPoint" />
          </mxGeometry>
        </mxCell>
        <mxCell id="IRePbEhJJhgFrzdcHoTZ-67" value="&lt;div style=&quot;font-size: 12px ; background-color: rgb(255 , 255 , 255)&quot;&gt;gender&lt;/div&gt;" style="html=1;shape=mxgraph.infographic.ribbonSimple;notch1=20;notch2=0;align=center;verticalAlign=middle;fontSize=14;fontStyle=0;fillColor=#FFFFFF;flipH=0;spacingRight=0;spacingLeft=14;shadow=0;fontFamily=Lucida Console;" vertex="1" parent="WIyWlLk6GJQsqaUBKTNV-1">
          <mxGeometry x="562.5" y="600" width="95" height="40" as="geometry" />
        </mxCell>
        <mxCell id="IRePbEhJJhgFrzdcHoTZ-69" value="" style="rounded=0;whiteSpace=wrap;html=1;fontSize=15;fontFamily=Lucida Console;" vertex="1" parent="WIyWlLk6GJQsqaUBKTNV-1">
          <mxGeometry x="630" y="570" width="10" height="10" as="geometry" />
        </mxCell>
        <mxCell id="IRePbEhJJhgFrzdcHoTZ-70" value="&lt;font style=&quot;font-size: 12px&quot;&gt;String&lt;/font&gt;" style="text;html=1;strokeColor=none;fillColor=none;align=center;verticalAlign=middle;whiteSpace=wrap;rounded=0;fontSize=15;fontFamily=Lucida Console;" vertex="1" parent="WIyWlLk6GJQsqaUBKTNV-1">
          <mxGeometry x="640" y="570" width="70" height="30" as="geometry" />
        </mxCell>
        <mxCell id="IRePbEhJJhgFrzdcHoTZ-84" value="" style="edgeStyle=orthogonalEdgeStyle;rounded=0;orthogonalLoop=1;jettySize=auto;html=1;fontFamily=Helvetica;fontSize=12;" edge="1" parent="WIyWlLk6GJQsqaUBKTNV-1" source="IRePbEhJJhgFrzdcHoTZ-77" target="IRePbEhJJhgFrzdcHoTZ-83">
          <mxGeometry relative="1" as="geometry" />
        </mxCell>
        <mxCell id="IRePbEhJJhgFrzdcHoTZ-77" value="&lt;font style=&quot;font-size: 12px&quot;&gt;Nyt motionsmedlem oprettes&lt;/font&gt;" style="rounded=1;whiteSpace=wrap;html=1;fontSize=14;fontFamily=Lucida Console;fillColor=#FFFFFF;fontStyle=0;spacingRight=0;spacingLeft=14;shadow=0;" vertex="1" parent="WIyWlLk6GJQsqaUBKTNV-1">
          <mxGeometry x="150" y="980" width="160" height="60" as="geometry" />
        </mxCell>
        <mxCell id="IRePbEhJJhgFrzdcHoTZ-79" value="" style="rounded=0;whiteSpace=wrap;html=1;fontSize=15;fontFamily=Lucida Console;" vertex="1" parent="WIyWlLk6GJQsqaUBKTNV-1">
          <mxGeometry x="240" y="970" width="10" height="10" as="geometry" />
        </mxCell>
        <mxCell id="IRePbEhJJhgFrzdcHoTZ-80" value="" style="rounded=0;whiteSpace=wrap;html=1;fontSize=15;fontFamily=Lucida Console;" vertex="1" parent="WIyWlLk6GJQsqaUBKTNV-1">
          <mxGeometry x="250" y="970" width="10" height="10" as="geometry" />
        </mxCell>
        <mxCell id="IRePbEhJJhgFrzdcHoTZ-81" value="" style="rounded=0;whiteSpace=wrap;html=1;fontSize=15;fontFamily=Lucida Console;" vertex="1" parent="WIyWlLk6GJQsqaUBKTNV-1">
          <mxGeometry x="260" y="970" width="10" height="10" as="geometry" />
        </mxCell>
        <mxCell id="IRePbEhJJhgFrzdcHoTZ-82" value="" style="rounded=0;whiteSpace=wrap;html=1;fontSize=15;fontFamily=Lucida Console;" vertex="1" parent="WIyWlLk6GJQsqaUBKTNV-1">
          <mxGeometry x="270" y="970" width="10" height="10" as="geometry" />
        </mxCell>
        <mxCell id="IRePbEhJJhgFrzdcHoTZ-83" value="&lt;font style=&quot;font-size: 12px&quot;&gt;Lægge til medlem i medlemsliste&lt;/font&gt;" style="rounded=1;whiteSpace=wrap;html=1;fontSize=14;fontFamily=Lucida Console;fillColor=#FFFFFF;fontStyle=0;spacingRight=0;spacingLeft=14;shadow=0;" vertex="1" parent="WIyWlLk6GJQsqaUBKTNV-1">
          <mxGeometry x="170" y="1070" width="120" height="60" as="geometry" />
        </mxCell>
        <mxCell id="IRePbEhJJhgFrzdcHoTZ-86" value="" style="rounded=0;whiteSpace=wrap;html=1;fontSize=15;fontFamily=Lucida Console;" vertex="1" parent="WIyWlLk6GJQsqaUBKTNV-1">
          <mxGeometry x="240" y="1040" width="10" height="10" as="geometry" />
        </mxCell>
        <mxCell id="IRePbEhJJhgFrzdcHoTZ-87" value="&lt;span style=&quot;font-size: 12px&quot;&gt;NonCompetitor&lt;/span&gt;" style="text;html=1;strokeColor=none;fillColor=none;align=center;verticalAlign=middle;whiteSpace=wrap;rounded=0;fontSize=15;fontFamily=Lucida Console;" vertex="1" parent="WIyWlLk6GJQsqaUBKTNV-1">
          <mxGeometry x="270" y="1030" width="110" height="30" as="geometry" />
        </mxCell>
        <mxCell id="IRePbEhJJhgFrzdcHoTZ-88" value="" style="rounded=0;whiteSpace=wrap;html=1;fontSize=15;fontFamily=Lucida Console;" vertex="1" parent="WIyWlLk6GJQsqaUBKTNV-1">
          <mxGeometry x="240" y="1060" width="10" height="10" as="geometry" />
        </mxCell>
        <mxCell id="IRePbEhJJhgFrzdcHoTZ-89" value="&lt;span style=&quot;font-size: 12px&quot;&gt;NonCompetitor&lt;/span&gt;" style="text;html=1;strokeColor=none;fillColor=none;align=center;verticalAlign=middle;whiteSpace=wrap;rounded=0;fontSize=15;fontFamily=Lucida Console;" vertex="1" parent="WIyWlLk6GJQsqaUBKTNV-1">
          <mxGeometry x="270" y="1050" width="110" height="30" as="geometry" />
        </mxCell>
      </root>
    </mxGraphModel>
  </diagram>
</mxfile>
